<svg xmlns="http://www.w3.org/2000/svg"  viewBox="0 0 50 50" width="50px" height="50px"><path d="M 27.501953 2 C 16.201532 2 7.0019531 11.199483 7.0019531 22.5 C 7.0019531 28.762033 9.8182608 34.379006 14.166016 38.066406 L 26.486328 49.398438 A 1.50015 1.50015 0 0 0 28.515625 49.398438 L 40.914062 37.992188 C 43.541865 35.575249 43.715109 31.438515 41.298828 28.810547 L 41.296875 28.808594 C 38.879195 26.180947 34.742809 26.007792 32.115234 28.425781 L 27.5 32.669922 L 22.804688 28.351562 A 1.50015 1.50015 0 0 0 22.757812 28.308594 C 21.016187 26.840262 20.001953 24.808324 20.001953 22.5 C 20.001953 18.347286 23.346151 15 27.501953 15 C 29.330395 15 30.97639 15.641076 32.279297 16.722656 A 1.50015 1.50015 0 0 0 32.28125 16.724609 C 35.030482 19.002914 39.152538 18.619229 41.433594 15.871094 C 43.711898 13.121862 43.328213 8.9998055 40.580078 6.71875 A 1.50015 1.50015 0 0 0 40.580078 6.7167969 C 37.033605 3.7754133 32.462329 2 27.501953 2 z M 27.501953 5 C 31.747578 5 35.636442 6.5146772 38.666016 9.0273438 C 40.163871 10.272598 40.368085 12.455047 39.125 13.955078 C 37.880055 15.454943 35.696081 15.657758 34.195312 14.414062 C 32.37822 12.905644 30.039511 12 27.501953 12 C 21.721755 12 17.001953 16.722714 17.001953 22.5 C 17.001953 25.705676 18.459897 28.609898 20.822266 30.601562 L 26.486328 35.810547 A 1.50015 1.50015 0 0 0 28.515625 35.810547 L 34.144531 30.634766 A 1.50015 1.50015 0 0 0 34.146484 30.632812 C 35.580214 29.313443 37.771253 29.405488 39.089844 30.839844 C 40.409214 32.273574 40.319121 34.466566 38.884766 35.785156 A 1.50015 1.50015 0 0 0 38.882812 35.785156 L 27.5 46.257812 L 16.197266 35.859375 A 1.50015 1.50015 0 0 0 16.146484 35.816406 C 12.434436 32.689072 10.001953 27.882166 10.001953 22.5 C 10.001953 12.822517 17.824375 5 27.501953 5 z"/></svg>