<?xml version="1.0" encoding="utf-8"?>
<!-- Generator: Adobe Illustrator 22.0.0, SVG Export Plug-In . SVG Version: 6.00 Build 0)  -->
<svg version="1.1" id="Слой_1" xmlns="http://www.w3.org/2000/svg" xmlns:xlink="http://www.w3.org/1999/xlink" x="0px" y="0px"
	 viewBox="0 0 512 512" style="enable-background:new 0 0 512 512;" xml:space="preserve">
<style type="text/css">
	.st0{fill:#004B3E;}
</style>
<path class="st0" d="M291.3,107h-70.6C158.2,107,107,158.2,107,220.7v70.6c0,62.6,51.2,113.7,113.7,113.7h70.6
	c62.5,0,113.7-51.2,113.7-113.7v-70.6C405,158.2,353.8,107,291.3,107z M214.9,160.7c16.3,0,29.5,13.2,29.5,29.5
	c0,16.3-13.2,29.5-29.5,29.5c-16.3,0-29.5-13.2-29.5-29.5C185.4,173.9,198.6,160.7,214.9,160.7z M266.3,362.7
	c-58.9,0-106.6-47.7-106.6-106.6c0-2.3,0.1-4.5,0.2-6.8h46.8c-0.2,2.2-0.4,4.5-0.4,6.8c0,33.1,26.8,60,60,60
	c18.2,0,34.5-8.1,45.5-21l35.4,30.4C327.7,348.2,298.7,362.6,266.3,362.7L266.3,362.7z M316.5,223.3c-9.4-14.4-24.7-24.5-42.5-26.8
	l12.1-45.3c27.3,5.1,50.8,20.6,66.5,42.2L316.5,223.3L316.5,223.3z"/>
</svg>
