<?xml version="1.0" standalone="no"?>
<!DOCTYPE svg PUBLIC "-//W3C//DTD SVG 20010904//EN"
 "http://www.w3.org/TR/2001/REC-SVG-20010904/DTD/svg10.dtd">
<svg version="1.0" xmlns="http://www.w3.org/2000/svg"
 width="112.000000pt" height="112.000000pt" viewBox="0 0 112.000000 112.000000"
 preserveAspectRatio="xMidYMid meet">
<metadata>
Created by potrace 1.16, written by Peter Selinger 2001-2019
</metadata>
<g transform="translate(0.000000,112.000000) scale(0.100000,-0.100000)"
fill="#000000" stroke="none">
<path d="M132 1099 c-51 -26 -109 -90 -123 -139 -6 -22 -9 -175 -7 -422 l3
-386 30 -43 c17 -24 50 -57 74 -74 l43 -30 408 0 408 0 43 30 c24 17 57 50 74
74 l30 43 0 408 0 408 -30 43 c-17 24 -50 57 -74 74 l-43 30 -396 3 c-388 2
-398 2 -440 -19z m768 -386 c23 -20 33 -40 37 -70 l6 -43 -41 0 c-37 0 -41 3
-44 28 -3 23 -8 27 -33 27 l-30 0 -3 -90 c-2 -75 0 -92 14 -102 24 -17 54 1
54 32 0 22 4 25 40 25 39 0 40 -1 40 -36 0 -28 -8 -44 -35 -71 -33 -33 -38
-35 -87 -31 -42 4 -57 11 -80 37 -27 30 -28 35 -28 142 l0 111 34 34 c29 29
41 34 80 34 36 0 52 -6 76 -27z m-499 -12 c29 -29 29 -31 29 -139 0 -95 -3
-113 -21 -136 -26 -33 -61 -42 -144 -38 l-65 4 0 104 0 104 40 0 40 0 0 -71 0
-70 33 3 32 3 0 95 0 95 -72 3 -73 3 0 34 0 35 86 0 c81 0 87 -1 115 -29z
m279 -6 c0 -33 -2 -35 -35 -35 l-35 0 0 -137 0 -138 -32 2 c-18 1 -36 2 -40 2
-5 1 -8 62 -8 136 l0 135 -35 0 c-33 0 -35 2 -35 35 l0 35 110 0 110 0 0 -35z"/>
</g>
</svg>
