<?xml version="1.0" encoding="utf-8"?>
<!-- Generator: Adobe Illustrator 22.0.0, SVG Export Plug-In . SVG Version: 6.00 Build 0)  -->
<svg version="1.1" id="Слой_1" xmlns="http://www.w3.org/2000/svg" xmlns:xlink="http://www.w3.org/1999/xlink" x="0px" y="0px"
	 viewBox="0 0 512 512" style="enable-background:new 0 0 512 512;" xml:space="preserve">
<style type="text/css">
	.st0{fill:#F5F4F2;}
	.st1{fill:#FA3E2C;}
	.st2{clip-path:url(#SVGID_2_);}
	.st3{clip-path:url(#SVGID_4_);}
	.st4{fill:#FFFFFF;}
</style>
<g>
	<g>
		<path class="st0" d="M112,0h288c61.9,0,112,50.1,112,112v288c0,61.9-50.1,112-112,112H112C50.1,512,0,461.9,0,400V112
			C0,50.1,50.1,0,112,0z"/>
		<path class="st1" d="M20.3,222.7H33c4.4,0,7.8,0.7,10.1,2.1c2.3,1.4,3.5,3.7,3.5,7c0,1.4-0.2,2.5-0.6,3.5c-0.4,1-0.9,1.8-1.7,2.5
			c-0.7,0.7-1.5,1.3-2.5,1.7c-1,0.5-2.1,0.8-3.3,1c3.1,0.4,5.5,1.2,7.1,2.5c1.6,1.3,2.4,3.3,2.4,6c0,1.9-0.4,3.6-1.1,5
			c-0.8,1.4-1.8,2.5-3.2,3.3c-1.4,0.8-2.9,1.5-4.8,1.9c-1.8,0.4-3.8,0.6-6,0.6H20.3V222.7z M26.6,228.2v9.9h6.7c2.1,0,3.8-0.4,5-1.3
			c1.3-0.9,1.9-2.3,1.9-4.2c0-1.7-0.6-2.9-1.8-3.5c-1.1-0.6-2.8-0.9-4.9-0.9H26.6z M26.6,243.5v11.1h6.9c1.2,0,2.3-0.1,3.2-0.3
			c1-0.2,1.8-0.5,2.5-0.9c0.7-0.5,1.2-1,1.6-1.7c0.4-0.7,0.6-1.6,0.6-2.7c0-2-0.7-3.5-2-4.3c-1.3-0.8-3.4-1.2-6.4-1.2H26.6z
			 M69.3,255.3c-0.3,0.6-0.7,1.2-1.1,1.9c-0.5,0.6-1,1.2-1.7,1.7c-0.7,0.5-1.5,0.9-2.4,1.2c-0.9,0.3-2,0.5-3.3,0.5
			c-1.2,0-2.3-0.2-3.3-0.5c-1-0.3-1.9-0.8-2.7-1.5c-0.7-0.7-1.3-1.5-1.8-2.4c-0.4-1-0.6-2.1-0.6-3.4c0-2.9,1.1-5.1,3.3-6.6
			c2.2-1.5,5.3-2.2,9.3-2.2h4.1v-1.7c0-1.8-0.5-3-1.4-3.6c-0.9-0.7-2.4-1-4.5-1c-1.8,0-3.4,0.3-5,0.8c-1.5,0.5-2.9,1.1-4.1,1.7v-5
			c1.1-0.6,2.5-1.1,4.3-1.7c1.8-0.5,3.7-0.8,5.8-0.8c3.5,0,6.1,0.7,8,2.2c1.9,1.4,2.9,3.7,2.9,6.9v14.1c0,0.3,0,0.7,0,1.1
			c0,0.4,0.1,0.8,0.1,1.2c0,0.4,0.1,0.8,0.1,1.2c0,0.3,0.1,0.6,0.1,0.9h-5.6c-0.1-0.5-0.2-1.2-0.3-2c-0.1-0.9-0.1-1.6-0.2-2.3
			L69.3,255.3z M62.4,255.8c1.3,0,2.3-0.3,3.2-0.8c0.9-0.6,1.6-1.2,2.1-1.9c0.5-0.7,0.9-1.4,1.1-2.1c0.2-0.7,0.3-1.2,0.3-1.5v-1.8
			h-3.7c-2.4,0-4.1,0.4-5.3,1.1c-1.1,0.7-1.7,1.8-1.7,3.1c0,1.2,0.3,2.1,1,2.8C60.1,255.5,61.1,255.8,62.4,255.8z M116.4,260H81.6
			v-27h6v22.1H96V233h6v22.1h8.3V233h6.1V260z M145.8,258c-0.4,0.2-0.8,0.5-1.4,0.8c-0.6,0.3-1.2,0.5-2,0.8
			c-0.8,0.2-1.6,0.5-2.7,0.6c-1,0.2-2.1,0.3-3.4,0.3c-5,0-8.7-1.2-11.1-3.7c-2.4-2.5-3.6-5.9-3.6-10.3c0-2.2,0.3-4.1,1-5.9
			c0.7-1.7,1.6-3.2,2.8-4.4c1.2-1.2,2.6-2.1,4.2-2.8c1.6-0.7,3.4-1,5.4-1c2,0,3.8,0.3,5.4,1c1.6,0.7,3,1.6,4,3
			c1,1.3,1.8,2.9,2.1,4.9c0.4,1.9,0.4,4.2,0.1,6.8h-18.7c0.2,2.5,1.1,4.3,2.4,5.6c1.4,1.2,3.6,1.8,6.5,1.8c2.1,0,3.9-0.3,5.4-0.8
			c1.5-0.6,2.7-1.1,3.7-1.7V258z M134.8,237.3c-1.8,0-3.3,0.5-4.5,1.6c-1.2,1.1-2,2.7-2.4,4.8h12.7c0.1-2.2-0.4-3.8-1.5-4.8
			C138.2,237.8,136.7,237.3,134.8,237.3z M169.4,251.8l12.5-18.8h5.9v27h-6v-18.7L169.5,260h-6v-27h6V251.8z M214.5,252.3
			c0,1.5-0.3,2.7-0.9,3.7c-0.6,1-1.4,1.9-2.5,2.6c-1,0.7-2.3,1.1-3.7,1.5c-1.4,0.3-2.9,0.5-4.5,0.5c-2.3,0-4.2-0.2-5.6-0.7
			c-1.5-0.5-2.6-1-3.4-1.5v-4.9c1,0.7,2.3,1.2,3.7,1.6c1.5,0.4,3.2,0.6,4.9,0.6c1.8,0,3.3-0.3,4.4-0.8c1.1-0.6,1.6-1.5,1.6-2.8
			c0-1.2-0.5-2.1-1.5-2.7c-1-0.6-2.5-0.8-4.5-0.8h-3.8v-4.6h3.9c1.6,0,2.9-0.3,3.7-0.8c0.9-0.6,1.4-1.4,1.4-2.5c0-1.2-0.5-2-1.5-2.5
			c-1-0.5-2.2-0.7-3.8-0.7c-1.7,0-3.2,0.2-4.6,0.6c-1.4,0.4-2.5,0.9-3.6,1.6v-4.9c0.9-0.6,2-1,3.5-1.5c1.5-0.5,3.3-0.7,5.5-0.7
			c3.3,0,5.9,0.6,7.6,1.8c1.7,1.2,2.6,3,2.6,5.3c0,1.8-0.5,3.2-1.5,4.2c-1,1-2.4,1.7-4.3,2.1C212.3,246.6,214.5,248.7,214.5,252.3z
			 M232.1,260.5c-1.9,0-3.7-0.3-5.3-0.9c-1.6-0.6-3.1-1.5-4.3-2.7c-1.2-1.2-2.1-2.7-2.8-4.4c-0.7-1.7-1-3.7-1-6c0-2.3,0.3-4.2,1-6
			c0.7-1.7,1.6-3.2,2.8-4.4c1.2-1.2,2.6-2.1,4.3-2.7c1.6-0.6,3.4-0.9,5.3-0.9c1.9,0,3.7,0.3,5.3,0.9c1.6,0.6,3.1,1.5,4.3,2.7
			c1.2,1.2,2.2,2.6,2.9,4.4c0.7,1.7,1,3.7,1,6c0,2.3-0.3,4.2-1,6c-0.7,1.7-1.6,3.2-2.9,4.4c-1.2,1.2-2.6,2.1-4.3,2.7
			C235.8,260.2,234,260.5,232.1,260.5z M232.1,255.5c2.1,0,3.8-0.7,5.1-2.2c1.4-1.5,2.1-3.7,2.1-6.8c0-3.1-0.7-5.3-2.1-6.8
			c-1.4-1.5-3.1-2.2-5.1-2.2c-2,0-3.8,0.7-5.1,2.2c-1.4,1.5-2,3.7-2,6.8c0,3.1,0.7,5.4,2,6.8C228.3,254.7,230,255.5,232.1,255.5z
			 M275.9,246.6c0,2.3-0.3,4.2-1,6s-1.6,3.2-2.9,4.4c-1.2,1.2-2.6,2.1-4.3,2.7c-1.6,0.6-3.4,0.9-5.3,0.9c-1.9,0-3.7-0.3-5.4-1
			c-1.6-0.7-3-1.6-4.2-3c-1.2-1.4-2.1-3-2.8-5c-0.7-2-1-4.4-1-7.1c0-2.5,0.1-4.7,0.3-6.8c0.2-2,0.6-3.9,1-5.5
			c0.5-1.6,1.2-3.1,2.1-4.3c0.9-1.2,2-2.3,3.3-3.2c1.6-1,3.3-1.6,5.1-1.9c1.8-0.3,3.7-0.5,5.6-0.5c2.1-0.1,3.7-0.3,4.8-0.5
			c1.1-0.3,2-0.6,2.8-1v5.4c-0.4,0.2-0.8,0.5-1.2,0.6c-0.4,0.1-0.9,0.3-1.5,0.4c-0.6,0.1-1.2,0.2-1.9,0.3c-0.7,0.1-1.6,0.1-2.5,0.2
			c-1.8,0.2-3.4,0.3-4.8,0.5c-1.5,0.1-2.8,0.6-3.9,1.3c-1.3,0.9-2.3,2.1-2.9,3.7c-0.6,1.6-1,3.5-1.2,5.8c1.7-3.9,5.1-5.9,10-5.9
			c1.6,0,3.1,0.3,4.5,0.9c1.5,0.6,2.7,1.5,3.8,2.6c1.1,1.1,1.9,2.5,2.5,4.2C275.6,242.5,275.9,244.4,275.9,246.6z M262.5,255.5
			c2.1,0,3.8-0.7,5.2-2.1c1.4-1.5,2.1-3.7,2.1-6.7c0-3-0.7-5.2-2.1-6.6c-1.4-1.5-3.1-2.2-5.2-2.2c-2.1,0-3.8,0.7-5.1,2.1
			c-1.3,1.4-2,3.6-2,6.6c0,3.1,0.7,5.3,2,6.8C258.7,254.8,260.4,255.5,262.5,255.5z M295.9,260.5c-2,0-3.8-0.5-5.3-1.4
			c-1.5-0.9-2.6-2.2-3.5-3.7v13.8h-6V233h5.5l0.4,4.8c0.9-1.6,2.1-2.9,3.6-3.8c1.5-1,3.3-1.5,5.5-1.5c1.6,0,3.1,0.3,4.5,0.9
			c1.5,0.6,2.7,1.4,3.8,2.6c1.1,1.1,1.9,2.6,2.5,4.4c0.7,1.7,1,3.8,1,6.1c0,2.4-0.3,4.5-1,6.2c-0.6,1.7-1.5,3.2-2.6,4.4
			c-1.1,1.1-2.3,2-3.8,2.6C299.1,260.2,297.5,260.5,295.9,260.5z M294.5,255.5c2.1,0,3.9-0.7,5.2-2.2c1.4-1.5,2-3.8,2-6.8
			c0-3-0.7-5.3-2-6.8c-1.3-1.5-3-2.2-5.1-2.2c-1.1,0-2.1,0.2-3,0.6c-0.9,0.3-1.7,0.9-2.4,1.7c-0.7,0.8-1.2,1.7-1.6,2.9
			c-0.4,1.1-0.6,2.4-0.6,3.9c0,1.5,0.2,2.9,0.6,4c0.4,1.1,0.9,2,1.6,2.8c0.7,0.7,1.4,1.3,2.3,1.7
			C292.5,255.3,293.4,255.5,294.5,255.5z M328.3,255.3c-0.3,0.6-0.7,1.2-1.1,1.9c-0.5,0.6-1,1.2-1.7,1.7c-0.7,0.5-1.5,0.9-2.4,1.2
			c-0.9,0.3-2,0.5-3.3,0.5c-1.2,0-2.3-0.2-3.3-0.5c-1-0.3-1.9-0.8-2.7-1.5c-0.7-0.7-1.3-1.5-1.8-2.4c-0.4-1-0.6-2.1-0.6-3.4
			c0-2.9,1.1-5.1,3.3-6.6c2.2-1.5,5.3-2.2,9.3-2.2h4.1v-1.7c0-1.8-0.5-3-1.4-3.6c-0.9-0.7-2.4-1-4.5-1c-1.8,0-3.4,0.3-5,0.8
			c-1.5,0.5-2.9,1.1-4.1,1.7v-5c1.1-0.6,2.5-1.1,4.3-1.7c1.8-0.5,3.7-0.8,5.8-0.8c3.5,0,6.1,0.7,8,2.2c1.9,1.4,2.9,3.7,2.9,6.9v14.1
			c0,0.3,0,0.7,0,1.1c0,0.4,0.1,0.8,0.1,1.2c0,0.4,0.1,0.8,0.1,1.2c0,0.3,0.1,0.6,0.1,0.9h-5.6c-0.1-0.5-0.2-1.2-0.3-2
			c-0.1-0.9-0.1-1.6-0.2-2.3L328.3,255.3z M321.4,255.8c1.3,0,2.3-0.3,3.2-0.8c0.9-0.6,1.6-1.2,2.1-1.9c0.5-0.7,0.9-1.4,1.1-2.1
			c0.2-0.7,0.3-1.2,0.3-1.5v-1.8h-3.7c-2.4,0-4.1,0.4-5.3,1.1c-1.1,0.7-1.7,1.8-1.7,3.1c0,1.2,0.3,2.1,1,2.8
			C319.1,255.5,320.1,255.8,321.4,255.8z M360.5,233v11.1h2.2l7.7-11.1h6.2l-9.2,12.9l9.7,14h-7.1l-7.5-11h-2.1v11h-6v-11h-2.1
			l-7.7,11h-6.9l9.7-13.8l-9.3-13.2h6.4l7.6,11.1h2.2V233H360.5z M402.6,258c-0.4,0.2-0.8,0.5-1.4,0.8c-0.6,0.3-1.2,0.5-2,0.8
			c-0.8,0.2-1.6,0.5-2.7,0.6c-1,0.2-2.1,0.3-3.4,0.3c-5,0-8.7-1.2-11.1-3.7c-2.4-2.5-3.6-5.9-3.6-10.3c0-2.2,0.3-4.1,1-5.9
			c0.7-1.7,1.6-3.2,2.8-4.4c1.2-1.2,2.6-2.1,4.2-2.8c1.6-0.7,3.4-1,5.4-1c2,0,3.8,0.3,5.4,1c1.6,0.7,3,1.6,4,3
			c1,1.3,1.8,2.9,2.1,4.9c0.4,1.9,0.4,4.2,0.1,6.8h-18.7c0.2,2.5,1.1,4.3,2.4,5.6c1.4,1.2,3.6,1.8,6.5,1.8c2.1,0,3.9-0.3,5.4-0.8
			c1.5-0.6,2.7-1.1,3.7-1.7V258z M391.6,237.3c-1.8,0-3.3,0.5-4.5,1.6c-1.2,1.1-2,2.7-2.4,4.8h12.7c0.1-2.2-0.4-3.8-1.5-4.8
			C395,237.8,393.5,237.3,391.6,237.3z M426.2,248.6h-11.4V260h-6v-27h6v10.7h11.4V233h6v27h-6V248.6z M445,251.8l12.5-18.8h5.9v27
			h-6v-18.7L445.1,260h-6v-27h6V251.8z M492.8,258c-0.4,0.2-0.8,0.5-1.4,0.8c-0.6,0.3-1.2,0.5-2,0.8c-0.8,0.2-1.6,0.5-2.7,0.6
			c-1,0.2-2.1,0.3-3.4,0.3c-5,0-8.7-1.2-11.1-3.7c-2.4-2.5-3.6-5.9-3.6-10.3c0-2.2,0.3-4.1,1-5.9c0.7-1.7,1.6-3.2,2.8-4.4
			c1.2-1.2,2.6-2.1,4.2-2.8c1.6-0.7,3.4-1,5.4-1c2,0,3.8,0.3,5.4,1c1.6,0.7,3,1.6,4,3c1,1.3,1.8,2.9,2.1,4.9
			c0.4,1.9,0.4,4.2,0.1,6.8h-18.7c0.2,2.5,1.1,4.3,2.4,5.6c1.4,1.2,3.6,1.8,6.5,1.8c2.1,0,3.9-0.3,5.4-0.8c1.5-0.6,2.7-1.1,3.7-1.7
			V258z M481.9,237.3c-1.8,0-3.3,0.5-4.5,1.6c-1.2,1.1-2,2.7-2.4,4.8h12.7c0.1-2.2-0.4-3.8-1.5-4.8
			C485.2,237.8,483.7,237.3,481.9,237.3z"/>
		<g>
			<defs>
				<rect id="SVGID_1_" width="512" height="512"/>
			</defs>
			<clipPath id="SVGID_2_">
				<use xlink:href="#SVGID_1_"  style="overflow:visible;"/>
			</clipPath>
			<g class="st2">
				<path class="st1" d="M200.1,243.3h4.9c1.6,0,2.8,0.3,3.6,0.8c0.8,0.5,1.2,1.4,1.2,2.7c0,0.5-0.1,1-0.2,1.4
					c-0.1,0.4-0.3,0.7-0.6,1c-0.2,0.3-0.5,0.5-0.9,0.7c-0.3,0.2-0.7,0.3-1.2,0.4c1.1,0.1,2,0.5,2.5,1c0.6,0.5,0.9,1.3,0.9,2.3
					c0,0.7-0.1,1.4-0.4,1.9c-0.3,0.5-0.6,0.9-1.1,1.3c-0.5,0.3-1,0.6-1.7,0.7c-0.7,0.1-1.4,0.2-2.1,0.2h-4.8V243.3z M202,245v4.4
					h2.8c0.5,0,0.9,0,1.2-0.1c0.4-0.1,0.7-0.3,1-0.5c0.3-0.2,0.5-0.5,0.6-0.8c0.2-0.3,0.2-0.7,0.2-1.1c0-0.7-0.3-1.2-0.8-1.5
					c-0.5-0.3-1.2-0.4-2.2-0.4H202z M202,251.1v4.8h2.9c0.5,0,1,0,1.4-0.1c0.4-0.1,0.8-0.2,1.1-0.4c0.3-0.2,0.5-0.4,0.7-0.7
					c0.2-0.3,0.3-0.7,0.3-1.1c0-0.9-0.3-1.5-0.9-1.9c-0.6-0.4-1.5-0.5-2.7-0.5H202z M218.4,255.7c-0.1,0.2-0.3,0.5-0.5,0.8
					c-0.2,0.3-0.4,0.5-0.7,0.7c-0.3,0.2-0.6,0.4-1,0.5c-0.4,0.1-0.8,0.2-1.3,0.2c-0.9,0-1.7-0.3-2.3-0.8c-0.6-0.5-0.9-1.3-0.9-2.3
					c0-1.1,0.4-2,1.2-2.5c0.8-0.5,1.9-0.8,3.4-0.8h1.9v-0.9c0-0.7-0.2-1.2-0.6-1.5c-0.4-0.3-1-0.5-1.9-0.5c-0.6,0-1.2,0.1-1.8,0.3
					c-0.6,0.2-1.1,0.4-1.5,0.7v-1.6c0.4-0.2,0.9-0.4,1.5-0.7c0.6-0.2,1.3-0.3,2.1-0.3c1.3,0,2.3,0.3,3,0.8c0.7,0.5,1,1.4,1,2.5v5.6
					c0,0.1,0,0.3,0,0.4c0,0.1,0,0.3,0,0.5c0,0.2,0,0.3,0,0.5c0,0.1,0,0.2,0,0.3h-1.6c0-0.2-0.1-0.4-0.1-0.8c0-0.3,0-0.6,0-0.9
					L218.4,255.7z M215.3,256.3c0.5,0,1-0.1,1.4-0.3c0.4-0.2,0.7-0.5,0.9-0.8c0.2-0.3,0.4-0.6,0.5-0.9c0.1-0.3,0.2-0.5,0.2-0.6v-0.8
					h-1.8c-1.1,0-1.8,0.2-2.3,0.5c-0.5,0.3-0.7,0.7-0.7,1.3c0,0.5,0.1,0.8,0.4,1.1C214.2,256.1,214.7,256.3,215.3,256.3z
					 M235.3,257.7h-13v-10.4h1.8v8.9h3.8v-8.9h1.8v8.9h3.8v-8.9h1.8V257.7z M243.7,255.7c-0.1,0.2-0.3,0.5-0.5,0.8
					c-0.2,0.3-0.4,0.5-0.7,0.7c-0.3,0.2-0.6,0.4-1,0.5c-0.4,0.1-0.8,0.2-1.3,0.2c-0.9,0-1.7-0.3-2.3-0.8c-0.6-0.5-0.9-1.3-0.9-2.3
					c0-1.1,0.4-2,1.2-2.5c0.8-0.5,1.9-0.8,3.4-0.8h1.9v-0.9c0-0.7-0.2-1.2-0.6-1.5c-0.4-0.3-1-0.5-1.9-0.5c-0.6,0-1.2,0.1-1.8,0.3
					c-0.6,0.2-1.1,0.4-1.5,0.7v-1.6c0.4-0.2,0.9-0.4,1.5-0.7c0.6-0.2,1.3-0.3,2.1-0.3c1.3,0,2.3,0.3,3,0.8c0.7,0.5,1,1.4,1,2.5v5.6
					c0,0.1,0,0.3,0,0.4c0,0.1,0,0.3,0,0.5c0,0.2,0,0.3,0,0.5c0,0.1,0,0.2,0,0.3h-1.6c0-0.2-0.1-0.4-0.1-0.8c0-0.3,0-0.6,0-0.9
					L243.7,255.7z M240.6,256.3c0.5,0,1-0.1,1.4-0.3c0.4-0.2,0.7-0.5,0.9-0.8c0.2-0.3,0.4-0.6,0.5-0.9c0.1-0.3,0.2-0.5,0.2-0.6v-0.8
					h-1.8c-1.1,0-1.8,0.2-2.3,0.5c-0.5,0.3-0.7,0.7-0.7,1.3c0,0.5,0.1,0.8,0.4,1.1C239.6,256.1,240,256.3,240.6,256.3z M253.3,255.3
					l5.5-8h1.8v10.4h-1.8v-8l-5.5,8h-1.8v-10.4h1.8V255.3z M265.7,253.2h-0.9v4.4H263v-10.4h1.8v4.5h1l3.6-4.5h2l-4.3,5.1l4.3,5.3
					h-2.1L265.7,253.2z M276.7,257.9c-0.7,0-1.4-0.1-2-0.4c-0.6-0.2-1.1-0.6-1.6-1c-0.4-0.5-0.8-1-1-1.7c-0.3-0.7-0.4-1.4-0.4-2.3
					c0-0.9,0.1-1.6,0.4-2.3c0.3-0.7,0.6-1.2,1-1.7c0.5-0.5,1-0.8,1.6-1c0.6-0.2,1.3-0.4,2-0.4c0.7,0,1.4,0.1,2,0.4
					c0.6,0.2,1.1,0.6,1.6,1c0.5,0.5,0.8,1,1.1,1.7c0.3,0.7,0.4,1.4,0.4,2.3c0,0.9-0.1,1.6-0.4,2.3c-0.3,0.7-0.6,1.2-1.1,1.7
					c-0.4,0.5-1,0.8-1.6,1C278.1,257.7,277.4,257.9,276.7,257.9z M276.7,256.3c0.5,0,0.9-0.1,1.3-0.2c0.4-0.2,0.7-0.4,1-0.7
					c0.3-0.3,0.5-0.7,0.7-1.2c0.2-0.5,0.2-1,0.2-1.7c0-0.7-0.1-1.2-0.2-1.7c-0.2-0.5-0.4-0.9-0.7-1.2c-0.3-0.3-0.6-0.6-1-0.7
					c-0.4-0.2-0.8-0.2-1.3-0.2c-0.5,0-0.9,0.1-1.3,0.2c-0.4,0.1-0.7,0.4-1,0.7c-0.3,0.3-0.5,0.7-0.7,1.2c-0.2,0.5-0.2,1-0.2,1.7
					c0,0.7,0.1,1.2,0.2,1.7c0.2,0.5,0.4,0.9,0.7,1.2c0.3,0.3,0.6,0.5,1,0.7C275.8,256.2,276.3,256.3,276.7,256.3z M290.2,253.1h-5
					v4.6h-1.8v-10.4h1.8v4.3h5v-4.3h1.8v10.4h-1.8V253.1z M297,253.2h-0.9v4.4h-1.8v-10.4h1.8v4.5h1l3.6-4.5h2l-4.3,5.1l4.3,5.3
					h-2.1L297,253.2z M310,255.7c-0.1,0.2-0.3,0.5-0.5,0.8c-0.2,0.3-0.4,0.5-0.7,0.7c-0.3,0.2-0.6,0.4-1,0.5
					c-0.4,0.1-0.8,0.2-1.3,0.2c-0.9,0-1.7-0.3-2.3-0.8c-0.6-0.5-0.9-1.3-0.9-2.3c0-1.1,0.4-2,1.2-2.5c0.8-0.5,1.9-0.8,3.4-0.8h1.9
					v-0.9c0-0.7-0.2-1.2-0.6-1.5c-0.4-0.3-1-0.5-1.9-0.5c-0.6,0-1.2,0.1-1.8,0.3c-0.6,0.2-1.1,0.4-1.5,0.7v-1.6
					c0.4-0.2,0.9-0.4,1.5-0.7c0.6-0.2,1.3-0.3,2.1-0.3c1.3,0,2.3,0.3,3,0.8c0.7,0.5,1,1.4,1,2.5v5.6c0,0.1,0,0.3,0,0.4
					c0,0.1,0,0.3,0,0.5c0,0.2,0,0.3,0,0.5c0,0.1,0,0.2,0,0.3h-1.6c0-0.2-0.1-0.4-0.1-0.8c0-0.3,0-0.6,0-0.9L310,255.7z M306.9,256.3
					c0.5,0,1-0.1,1.4-0.3c0.4-0.2,0.7-0.5,0.9-0.8c0.2-0.3,0.4-0.6,0.5-0.9c0.1-0.3,0.2-0.5,0.2-0.6v-0.8h-1.8
					c-1.1,0-1.8,0.2-2.3,0.5c-0.5,0.3-0.7,0.7-0.7,1.3c0,0.5,0.1,0.8,0.4,1.1C305.9,256.1,306.3,256.3,306.9,256.3z"/>
				<g>
					<defs>
						<rect id="SVGID_3_" width="512" height="512"/>
					</defs>
					<clipPath id="SVGID_4_">
						<use xlink:href="#SVGID_3_"  style="overflow:visible;"/>
					</clipPath>
					<g class="st3">
						<path class="st4" d="M512,0C341.3,0,170.7,0,0,0l0,512h512C512,341.3,512,170.7,512,0z"/>
						<path d="M322.6,414.9c-55.1,0-65.7-47.5-32.6-112.8c32.2-65.7,92.4-113.6,145.4-113.6c53.4,0,65.3,47.1,32.2,113.6
							C435.4,367.8,379.4,414.9,322.6,414.9z M253.9,138.1c21.6,0,15.7,50.4-12.3,100.5h58.5C363.7,104.1,315.4,52,260.7,52
							c-88.6,0-188.2,89.5-251,204.3C-56,376.7-48.3,470,36,470c95.8,0,188.7-86.1,254.4-206.5H165.3l-24.6,39.8H223l3-36
							c-40.3,70.4-86.9,116.2-113.2,116.2c-25.9,0-15.7-52.1,24.6-122.5C178,190.2,225.9,138.1,253.9,138.1z M417.6,301.7
							c21.2-35.6,23.7-61,11-61c-14,0-36.5,26.3-57.2,61c-21.6,35.2-24.2,60.6-11,60.6C374.3,362.3,396.8,336,417.6,301.7z"/>
					</g>
				</g>
			</g>
		</g>
	</g>
</g>
</svg>
