<svg class="YangoLogo__logo" fill="none" height="50" viewBox="0 0 152 50" width="152" xmlns="http://www.w3.org/2000/svg"><path d="M15.6038 18.0461L16.4179 0.949796H5.83446L5.69878 31.9539L0 49.118H10.7191L16.1465 32.768L36.9064 0.949796H24.8982L15.6038 18.0461Z" fill="#FF0000"></path><path d="M14.8671 49.118H25.7897L29.8603 40.4342H38.5441L36.9838 49.118H47.2958L54.2836 0.949796H39.8331L14.8671 49.118ZM43.6323 11.2619L40.1045 31.3433H34.2022L43.6323 11.2619Z" fill="#FF0000"></path><path d="M74.621 28.4939L75.9779 0.949796H64.309L48.2981 49.118H58.1353L67.7011 20.3528L66.2085 49.118H77.6061L93.617 0.949796H83.7798L74.621 28.4939Z" fill="#FF0000"></path><path d="M108.181 8.61601C109.877 8.61601 110.556 10.3121 110.692 16.0109L120.257 12.7544C120.325 5.5631 116.797 0 109.267 0C99.6332 0 93.3239 8.48033 88.1 23.6092C82.8761 38.7381 85.9968 49.9322 94.138 49.9322C97.3944 49.9322 99.4297 48.6431 101.736 45.7259L101.126 49.118H108.792L117.883 21.8453H103.229L100.244 30.9362H105.4L105.196 31.5468C103.704 36.0923 100.99 41.2483 98.1407 41.2483C95.0878 41.2483 94.8164 37.1099 98.8869 24.8982C102.957 12.6866 105.128 8.61601 108.181 8.61601Z" fill="#FF0000"></path><path d="M127.923 50C136.335 50 143.391 42.3338 148.547 26.8657C153.363 12.483 152.889 0.0678423 139.998 0.0678423C131.586 0.0678423 124.598 7.73406 119.374 23.2022C114.49 37.6526 115.032 50 127.923 50ZM128.94 41.384C124.87 41.384 127.515 32.768 130.161 24.559C134.232 11.9403 136.606 8.68385 138.981 8.68385C143.051 8.68385 140.406 17.2999 137.76 25.5088C133.689 38.1275 131.315 41.384 128.94 41.384Z" fill="#FF0000"></path></svg>